# xmcd
#
# Track frame offsets: 
#        150
#        22922
#        48654
#        75706
#        109769
#        136467
#        160599
#        179837
#        202510
#        231720
#
# Disc length: 3391 seconds
#
# Revision: 0
# Processed by: cddbd v1.5.2PL0 Copyright (c) Steve Scherf et al.
# Submitted via: ExactAudioCopy v1.0b3
#
DISCID=810d3d0a
DTITLE=Nhat Truong - Tinh ca Tran Thien Thanh 7
DYEAR=2008
DGENRE=
TTITLE0=Trong lan tai ngo
TTITLE1=Nhat Truong, Khanh Ly - Chieu tren pha Tam Giang
TTITLE2=Mua Xuan la kho
TTITLE3=Nhat Truong, Thanh Lan - Goa phu ngay tho
TTITLE4=Roi den roi di
TTITLE5=Nhat Truong, Ngoc Lan - Tren dinh mua dong
TTITLE6=Tam su nguoi linh tre
TTITLE7=Nhat Truong, Huong Lan - Anh ve voi em
TTITLE8=Bien man
TTITLE9=Nhat Truong, My Lan - Chuyen di ve sang
EXTD=
EXTT0=
EXTT1=
EXTT2=
EXTT3=
EXTT4=
EXTT5=
EXTT6=
EXTT7=
EXTT8=
EXTT9=
PLAYORDER=
